<?xml version="1.0" encoding="UTF-8"?> <svg xmlns="http://www.w3.org/2000/svg" width="144" height="144" viewBox="0 0 144 144" fill="none"> <rect width="144" height="144" fill="white"></rect> <path d="M71.88 79.14C71.2267 79.14 70.6 79.0733 70 78.94C69.4 78.7933 68.86 78.5733 68.38 78.28C67.9133 77.9733 67.5133 77.58 67.18 77.1C66.86 76.62 66.6533 76.04 66.56 75.36H68.9C69.0067 75.7067 69.1667 75.9867 69.38 76.2C69.5933 76.4133 69.8333 76.5867 70.1 76.72C70.38 76.8533 70.6733 76.9467 70.98 77C71.2867 77.04 71.5867 77.06 71.88 77.06C72.1867 77.06 72.5067 77.0333 72.84 76.98C73.1733 76.9133 73.4733 76.8 73.74 76.64C74.02 76.48 74.2467 76.26 74.42 75.98C74.6067 75.6867 74.7 75.3067 74.7 74.84C74.7 74.4133 74.6133 74.0667 74.44 73.8C74.28 73.5333 74.06 73.3267 73.78 73.18C73.5133 73.0333 73.2067 72.9333 72.86 72.88C72.5267 72.8267 72.1867 72.8 71.84 72.8H70.44V70.84H71.26C71.58 70.84 71.9133 70.8067 72.26 70.74C72.6067 70.6733 72.92 70.56 73.2 70.4C73.4933 70.24 73.7267 70.0267 73.9 69.76C74.0867 69.4933 74.18 69.16 74.18 68.76C74.18 68.3733 74.1133 68.0533 73.98 67.8C73.8467 67.5333 73.6667 67.3267 73.44 67.18C73.2133 67.02 72.9533 66.9133 72.66 66.86C72.38 66.7933 72.08 66.76 71.76 66.76C71.2133 66.76 70.7 66.8867 70.22 67.14C69.74 67.38 69.4267 67.8067 69.28 68.42H67C67.08 67.7667 67.26 67.2067 67.54 66.74C67.82 66.26 68.18 65.8733 68.62 65.58C69.06 65.2733 69.5533 65.0467 70.1 64.9C70.66 64.7533 71.2467 64.68 71.86 64.68C72.46 64.68 73.0333 64.7467 73.58 64.88C74.14 65.0133 74.6333 65.2267 75.06 65.52C75.4867 65.8133 75.8267 66.2 76.08 66.68C76.3333 67.1467 76.46 67.72 76.46 68.4C76.46 68.96 76.32 69.5133 76.04 70.06C75.7733 70.6067 75.2733 71.0667 74.54 71.44C75.38 71.6667 76.0067 72.08 76.42 72.68C76.8333 73.2667 77.04 73.98 77.04 74.82C77.04 75.5933 76.8933 76.2533 76.6 76.8C76.32 77.3333 75.9467 77.78 75.48 78.14C75.0267 78.4867 74.4867 78.74 73.86 78.9C73.2333 79.06 72.5733 79.14 71.88 79.14Z" fill="black"></path> <path d="M94.9396 72.4698C94.9396 84.8796 84.8796 94.9396 72.4698 94.9396C60.0601 94.9396 50 84.8796 50 72.4698C50 60.0601 60.0601 50 72.4698 50C84.8796 50 94.9396 60.0601 94.9396 72.4698ZM51.11 72.4698C51.11 84.2666 60.6731 93.8297 72.4698 93.8297C84.2666 93.8297 93.8297 84.2666 93.8297 72.4698C93.8297 60.6731 84.2666 51.11 72.4698 51.11C60.6731 51.11 51.11 60.6731 51.11 72.4698Z" stroke="#EC622A" stroke-width="2"></path> </svg> 