<?xml version="1.0" encoding="UTF-8"?> <svg xmlns="http://www.w3.org/2000/svg" width="144" height="144" viewBox="0 0 144 144" fill="none"> <rect width="144" height="144" fill="white"></rect> <path d="M71.4 72.72C71.72 72.44 72.0733 72.1333 72.46 71.8C72.86 71.4667 73.2333 71.12 73.58 70.76C73.94 70.3867 74.2333 69.9867 74.46 69.56C74.7 69.1333 74.82 68.6733 74.82 68.18C74.82 67.46 74.6067 66.88 74.18 66.44C73.7533 66 73.14 65.78 72.34 65.78C71.7 65.78 71.16 65.9267 70.72 66.22C70.28 66.5133 70.0067 66.9067 69.9 67.4H67.62C67.6733 66.7867 67.84 66.24 68.12 65.76C68.4133 65.28 68.78 64.8867 69.22 64.58C69.66 64.2733 70.14 64.0533 70.66 63.92C71.1933 63.7733 71.8 63.7 72.48 63.7C73.12 63.7 73.72 63.7867 74.28 63.96C74.84 64.1333 75.3267 64.3933 75.74 64.74C76.1667 65.0867 76.5 65.5267 76.74 66.06C76.9933 66.58 77.12 67.1933 77.12 67.9C77.12 68.46 77.0467 68.9733 76.9 69.44C76.7533 69.9067 76.5533 70.34 76.3 70.74C76.0467 71.14 75.7533 71.5133 75.42 71.86C75.1 72.2067 74.76 72.5333 74.4 72.84C73.92 73.2533 73.4933 73.6133 73.12 73.92C72.76 74.2133 72.4333 74.48 72.14 74.72C71.8467 74.96 71.58 75.18 71.34 75.38C71.1 75.5667 70.8733 75.7533 70.66 75.94H77.12V78H67.5V76.1L71.4 72.72Z" fill="black"></path> <g clip-path="url(#clip0_140_3268)"> <path d="M94.9396 71.4698C94.9396 83.8796 84.8795 93.9396 72.4698 93.9396C60.0601 93.9396 50 83.8796 50 71.4698C50 59.0601 60.0601 49 72.4698 49C84.8795 49 94.9396 59.0601 94.9396 71.4698ZM51.11 71.4698C51.11 83.2665 60.6731 92.8297 72.4698 92.8297C84.2665 92.8297 93.8296 83.2665 93.8296 71.4698C93.8296 59.6731 84.2665 50.11 72.4698 50.11C60.6731 50.11 51.11 59.6731 51.11 71.4698Z" stroke="black" stroke-opacity="0.15" stroke-width="2"></path> <path d="M94.9264 72.241C94.7372 77.7508 92.5291 82.9988 88.7221 86.9863C84.9151 90.9739 79.775 93.4227 74.2798 93.8668L74.1904 92.7605C79.4141 92.3383 84.3003 90.0104 87.9193 86.2199C91.5382 82.4293 93.6373 77.4405 93.8171 72.2029L94.9264 72.241Z" stroke="#EC622A" stroke-width="2"></path> <path d="M73.9282 49.0474C79.4297 49.4052 84.6076 51.7731 88.4766 55.7004C92.3457 59.6277 94.6359 64.8404 94.9115 70.3466L93.8029 70.4021C93.541 65.1679 91.3639 60.2127 87.6859 56.4794C84.008 52.746 79.0859 50.4951 73.8562 50.155L73.9282 49.0474Z" stroke="#EC622A" stroke-width="2"></path> </g> <defs> <clipPath id="clip0_140_3268"> <rect width="47" height="47" fill="white" transform="translate(49 48)"></rect> </clipPath> </defs> </svg> 