<?xml version="1.0" encoding="UTF-8"?> <svg xmlns="http://www.w3.org/2000/svg" width="144" height="144" viewBox="0 0 144 144" fill="none"> <rect width="144" height="144" fill="white"></rect> <path d="M73.6 79H71.28V68.12H68.4V66.54C69.1867 66.5133 69.88 66.3867 70.48 66.16C71.08 65.92 71.5533 65.4867 71.9 64.86H73.6V79Z" fill="black"></path> <mask id="mask0_140_3293" style="mask-type:alpha" maskUnits="userSpaceOnUse" x="48" y="48" width="48" height="48"> <path d="M94.205 71.7352C94.205 84.1449 84.1449 94.205 71.7352 94.205C59.3255 94.205 49.2654 84.1449 49.2654 71.7352C49.2654 59.3255 59.3255 49.2654 71.7352 49.2654C84.1449 49.2654 94.205 59.3255 94.205 71.7352ZM50.3753 71.7352C50.3753 83.5319 59.9385 93.095 71.7352 93.095C83.5319 93.095 93.095 83.5319 93.095 71.7352C93.095 59.9385 83.5319 50.3753 71.7352 50.3753C59.9385 50.3753 50.3753 59.9385 50.3753 71.7352Z" stroke="black" stroke-width="2"></path> </mask> <g mask="url(#mask0_140_3293)"> <path d="M94.205 71.7352C94.205 84.1449 84.1449 94.205 71.7352 94.205C59.3255 94.205 49.2654 84.1449 49.2654 71.7352C49.2654 59.3255 59.3255 49.2654 71.7352 49.2654C84.1449 49.2654 94.205 59.3255 94.205 71.7352ZM50.3753 71.7352C50.3753 83.5319 59.9385 93.095 71.7352 93.095C83.5319 93.095 93.095 83.5319 93.095 71.7352C93.095 59.9385 83.5319 50.3753 71.7352 50.3753C59.9385 50.3753 50.3753 59.9385 50.3753 71.7352Z" stroke="black" stroke-opacity="0.15" stroke-width="2"></path> </g> <mask id="mask1_140_3293" style="mask-type:alpha" maskUnits="userSpaceOnUse" x="72" y="71" width="24" height="25"> <path d="M94.1918 72.5061C94.0026 78.0159 91.7944 83.2639 87.9875 87.2515C84.1805 91.239 79.0404 93.6879 73.5452 94.132L73.4558 93.0256C78.6795 92.6034 83.5657 90.2756 87.1846 86.485C90.8036 82.6944 92.9026 77.7057 93.0825 72.468L94.1918 72.5061Z" stroke="#EC622A" stroke-width="2"></path> </mask> <g mask="url(#mask1_140_3293)"> <path d="M94.1918 72.5061C94.0026 78.0159 91.7944 83.2639 87.9875 87.2515C84.1805 91.239 79.0404 93.6879 73.5452 94.132L73.4558 93.0256C78.6795 92.6034 83.5657 90.2756 87.1846 86.485C90.8036 82.6944 92.9026 77.7057 93.0825 72.468L94.1918 72.5061Z" stroke="#EC622A" stroke-width="2"></path> </g> </svg> 