<?xml version="1.0" encoding="UTF-8"?> <svg xmlns="http://www.w3.org/2000/svg" width="144" height="144" viewBox="0 0 144 144" fill="none"> <rect width="144" height="144" fill="white"></rect> <path d="M75.34 64.86V74.24H76.96V76.28H75.34V79H73.04V76.28H65.74V74.62L72.36 64.86H75.34ZM68.42 74.24H73.04V67.32L68.42 74.24Z" fill="black"></path> <path d="M94.9396 72.4698C94.9396 84.8796 84.8796 94.9396 72.4698 94.9396C60.0601 94.9396 50 84.8796 50 72.4698C50 60.0601 60.0601 50 72.4698 50C84.8796 50 94.9396 60.0601 94.9396 72.4698ZM51.11 72.4698C51.11 84.2666 60.6731 93.8297 72.4698 93.8297C84.2666 93.8297 93.8297 84.2666 93.8297 72.4698C93.8297 60.6731 84.2666 51.11 72.4698 51.11C60.6731 51.11 51.11 60.6731 51.11 72.4698Z" stroke="#EC622A" stroke-width="2"></path> <line x1="37.1213" y1="43" x2="44" y2="49.8787" stroke="#EC622A" stroke-width="3" stroke-linecap="round"></line> <line x1="1.5" y1="-1.5" x2="11.2279" y2="-1.5" transform="matrix(-0.707107 0.707107 0.707107 0.707107 109 43)" stroke="#EC622A" stroke-width="3" stroke-linecap="round"></line> <line x1="72.5" y1="28.5" x2="72.5" y2="38.5" stroke="#EC622A" stroke-width="3" stroke-linecap="round"></line> <line x1="28.5" y1="71.5" x2="38.5" y2="71.5" stroke="#EC622A" stroke-width="3" stroke-linecap="round"></line> <line x1="106.5" y1="71.5" x2="116.5" y2="71.5" stroke="#EC622A" stroke-width="3" stroke-linecap="round"></line> <line x1="1.5" y1="-1.5" x2="11.2279" y2="-1.5" transform="matrix(0.707107 -0.707107 -0.707107 -0.707107 35 103)" stroke="#EC622A" stroke-width="3" stroke-linecap="round"></line> <line x1="106.879" y1="103" x2="100" y2="96.1213" stroke="#EC622A" stroke-width="3" stroke-linecap="round"></line> <line x1="1.5" y1="-1.5" x2="11.5" y2="-1.5" transform="matrix(4.37114e-08 -1 -1 -4.37114e-08 71 119)" stroke="#EC622A" stroke-width="3" stroke-linecap="round"></line> </svg> 